<?xml version="1.0" encoding="UTF-8" standalone="no"?>
<svg
   xmlns:dc="http://purl.org/dc/elements/1.1/"
   xmlns:cc="http://creativecommons.org/ns#"
   xmlns:rdf="http://www.w3.org/1999/02/22-rdf-syntax-ns#"
   xmlns:svg="http://www.w3.org/2000/svg"
   xmlns="http://www.w3.org/2000/svg"
   xmlns:sodipodi="http://sodipodi.sourceforge.net/DTD/sodipodi-0.dtd"
   xmlns:inkscape="http://www.inkscape.org/namespaces/inkscape"
   viewBox="0 0 339.33 342.52"
   version="1.1"
   id="svg10"
   sodipodi:docname="rawAsset-2-purple.svg"
   inkscape:version="0.92.4 (5da689c313, 2019-01-14)">
  <metadata
     id="metadata16">
    <rdf:RDF>
      <cc:Work
         rdf:about="">
        <dc:format>image/svg+xml</dc:format>
        <dc:type
           rdf:resource="http://purl.org/dc/dcmitype/StillImage" />
        <dc:title>rawAsset 2</dc:title>
      </cc:Work>
    </rdf:RDF>
  </metadata>
  <defs
     id="defs14" />
  <sodipodi:namedview
     pagecolor="#ffffff"
     bordercolor="#666666"
     borderopacity="1"
     objecttolerance="10"
     gridtolerance="10"
     guidetolerance="10"
     inkscape:pageopacity="0"
     inkscape:pageshadow="2"
     inkscape:window-width="1366"
     inkscape:window-height="705"
     id="namedview12"
     showgrid="false"
     inkscape:zoom="0.68901088"
     inkscape:cx="23.078045"
     inkscape:cy="171.25999"
     inkscape:window-x="-8"
     inkscape:window-y="-8"
     inkscape:window-maximized="1"
     inkscape:current-layer="svg10" />
  <title
     id="title2">rawAsset 2</title>
  <g
     id="Layer_2"
     data-name="Layer 2"
     style="fill:#908fb2;fill-opacity:1"
     inkscape:export-xdpi="96.300003"
     inkscape:export-ydpi="96.300003">
    <g
       id="Layer_1-2"
       data-name="Layer 1"
       style="fill:#908fb2;fill-opacity:1">
      <path
         d="M182.43,133.81l-.77.93a16.55,16.55,0,0,0-3.46,10l1.33,91.35a72.83,72.83,0,0,1-145.65,2.11l-1.41-97a72.44,72.44,0,0,1,1.27-14.65,74.1,74.1,0,0,1,4.94-15.85,69.86,69.86,0,0,1,7.79-13.33,72,72,0,0,1,6.61-7.81c1-1,2-1.94,3.35-3.16A72.59,72.59,0,0,1,104.1,67.48a71.78,71.78,0,0,1,31.5,6.75,15.73,15.73,0,0,0,20.69-6.8c.07-.07.07-.22.14-.29s.14-.14.07-.21a15.63,15.63,0,0,0-6.39-20.84C135.86,38.38,121,34.84,103.56,35.17a105.24,105.24,0,0,0-61.15,20.9c-1.54,1.15-3.08,2.3-4.54,3.53a102.45,102.45,0,0,0-8.17,7.54c-1.81,1.87-3.55,3.8-5.15,5.73a100.86,100.86,0,0,0-9.49,13.36c-.63.93-1.11,1.86-1.66,2.86a104,104,0,0,0-8.35,19.07A102.63,102.63,0,0,0,0,141.9l1.41,97a105.25,105.25,0,0,0,210.48-3.12l-1.34-92.34C210.29,128.67,191.67,122.29,182.43,133.81Z"
         id="path4"
         style="fill:#908fb2;fill-opacity:1" />
      <path
         d="M231,0A105.38,105.38,0,0,0,127.42,106.67l1.3,90.08a16.08,16.08,0,0,0,26.7,11.84A16.26,16.26,0,0,0,161,196.28L159.8,106.2a72.83,72.83,0,0,1,145.65-2.11l1.41,97a72.45,72.45,0,0,1-1.28,14.65,73.25,73.25,0,0,1-4.93,15.84,69.68,69.68,0,0,1-7.8,13.34,70.84,70.84,0,0,1-6.6,7.81c-1,1-2.1,2-3.35,3.16a71.89,71.89,0,0,1-77.39,12.93,16,16,0,0,0-20.34,6.87A16.16,16.16,0,0,0,192,298.09c13.18,6.53,27,9.37,43.41,9.13h.29a105.24,105.24,0,0,0,65.69-24.43,102.45,102.45,0,0,0,8.17-7.54c1.81-1.86,3.55-3.8,5.22-5.8a113.84,113.84,0,0,0,11.15-16.08,104,104,0,0,0,8.35-19.07,102.63,102.63,0,0,0,5-33.74l-1.41-97A105.26,105.26,0,0,0,231,0Z"
         id="path6"
         style="fill:#908fb2;fill-opacity:1" />
    </g>
  </g>
</svg>
